<mxfile host="app.diagrams.net" agent="Mozilla/5.0 (Windows NT 10.0; Win64; x64) AppleWebKit/537.36 (KHTML, like Gecko) Chrome/131.0.0.0 Safari/537.36 Edg/131.0.0.0" version="25.0.3">
  <diagram name="Page-1" id="mo0Z3RIZQ9WtXxjzt153">
    <mxGraphModel dx="1042" dy="565" grid="1" gridSize="10" guides="1" tooltips="1" connect="1" arrows="1" fold="1" page="1" pageScale="1" pageWidth="827" pageHeight="1169" math="0" shadow="0">
      <root>
        <mxCell id="0" />
        <mxCell id="1" parent="0" />
        <mxCell id="6pQfEWJAAGMHUiOHt3Cx-7" style="edgeStyle=orthogonalEdgeStyle;rounded=0;orthogonalLoop=1;jettySize=auto;html=1;" edge="1" parent="1" source="6pQfEWJAAGMHUiOHt3Cx-1" target="6pQfEWJAAGMHUiOHt3Cx-2">
          <mxGeometry relative="1" as="geometry" />
        </mxCell>
        <mxCell id="6pQfEWJAAGMHUiOHt3Cx-1" value="Supplier" style="rounded=0;whiteSpace=wrap;html=1;" vertex="1" parent="1">
          <mxGeometry x="330" y="80" width="120" height="40" as="geometry" />
        </mxCell>
        <mxCell id="6pQfEWJAAGMHUiOHt3Cx-2" value="Check Stock" style="ellipse;whiteSpace=wrap;html=1;" vertex="1" parent="1">
          <mxGeometry x="500" y="190" width="120" height="80" as="geometry" />
        </mxCell>
        <mxCell id="6pQfEWJAAGMHUiOHt3Cx-3" value="Add Product" style="ellipse;whiteSpace=wrap;html=1;" vertex="1" parent="1">
          <mxGeometry x="230" y="200" width="120" height="80" as="geometry" />
        </mxCell>
        <mxCell id="6pQfEWJAAGMHUiOHt3Cx-4" value="Generate Order" style="ellipse;whiteSpace=wrap;html=1;" vertex="1" parent="1">
          <mxGeometry x="380" y="330" width="120" height="80" as="geometry" />
        </mxCell>
        <mxCell id="6pQfEWJAAGMHUiOHt3Cx-6" value="Process Order" style="ellipse;whiteSpace=wrap;html=1;" vertex="1" parent="1">
          <mxGeometry x="230" y="460" width="120" height="80" as="geometry" />
        </mxCell>
        <mxCell id="6pQfEWJAAGMHUiOHt3Cx-11" value="Purchase" style="text;html=1;align=center;verticalAlign=middle;whiteSpace=wrap;rounded=0;" vertex="1" parent="1">
          <mxGeometry x="80" y="490" width="60" height="30" as="geometry" />
        </mxCell>
        <mxCell id="6pQfEWJAAGMHUiOHt3Cx-12" value="" style="shape=link;html=1;rounded=0;width=35;" edge="1" parent="1">
          <mxGeometry width="100" relative="1" as="geometry">
            <mxPoint x="60" y="504.5" as="sourcePoint" />
            <mxPoint x="160" y="504.5" as="targetPoint" />
            <Array as="points">
              <mxPoint x="110" y="504.5" />
            </Array>
          </mxGeometry>
        </mxCell>
        <mxCell id="6pQfEWJAAGMHUiOHt3Cx-13" value="Admin" style="rounded=0;whiteSpace=wrap;html=1;" vertex="1" parent="1">
          <mxGeometry x="650" y="410" width="120" height="40" as="geometry" />
        </mxCell>
      </root>
    </mxGraphModel>
  </diagram>
</mxfile>
